<svg width="15" height="15" viewBox="0 0 15 15" fill="none" xmlns="http://www.w3.org/2000/svg">
<g id="&#230;&#151;&#165;&#229;&#142;&#134;">
<path id="Union" fill-rule="evenodd" clip-rule="evenodd" d="M3.50101 0C3.22479 0 3.00086 0.223922 3.00086 0.500144V2.00058H2C0.895431 2.00058 0 2.89601 0 4.00058V12.004C0 13.1086 0.895431 14.004 2 14.004H12.004C13.1086 14.004 14.004 13.1086 14.004 12.004V4.00058C14.004 2.89601 13.1086 2.00058 12.004 2.00058H11.0032V0.500144C11.0032 0.223922 10.7792 0 10.503 0C10.2268 0 10.0029 0.223922 10.0029 0.500144V2.00058H4.00115V0.500144C4.00115 0.223922 3.77723 0 3.50101 0ZM10.0029 3.50101V3.00086H4.00115V3.50101C4.00115 3.77723 3.77723 4.00115 3.50101 4.00115C3.22479 4.00115 3.00086 3.77723 3.00086 3.50101V3.00086H2.00029C1.448 3.00086 1.00029 3.44858 1.00029 4.00086V5.00144H13.0037V4.00086C13.0037 3.44858 12.556 3.00086 12.0037 3.00086H11.0032V3.50101C11.0032 3.77723 10.7792 4.00115 10.503 4.00115C10.2268 4.00115 10.0029 3.77723 10.0029 3.50101ZM13.0037 6.00173H1.00029V12.0037C1.00029 12.556 1.448 13.0037 2.00029 13.0037H12.0037C12.556 13.0037 13.0037 12.556 13.0037 12.0037V6.00173ZM3.00086 7.50216C3.00086 7.22594 3.22479 7.00202 3.50101 7.00202H10.503C10.7792 7.00202 11.0032 7.22594 11.0032 7.50216C11.0032 7.77838 10.7792 8.0023 10.503 8.0023H3.50101C3.22479 8.0023 3.00086 7.77838 3.00086 7.50216ZM3.50101 10.0029C3.22479 10.0029 3.00086 10.2268 3.00086 10.503C3.00086 10.7792 3.22479 11.0032 3.50101 11.0032H10.503C10.7792 11.0032 11.0032 10.7792 11.0032 10.503C11.0032 10.2268 10.7792 10.0029 10.503 10.0029H3.50101Z" fill="#D8E9FF"/>
</g>
</svg>
