<svg width="14" height="14" viewBox="0 0 14 14" fill="none" xmlns="http://www.w3.org/2000/svg">
<g id="&#230;&#150;&#135;&#228;&#187;&#182; 2">
<path id="Vector" d="M12.1584 11.6908H11.5993H11.8208C12.0094 11.6799 12.1584 11.524 12.1584 11.3326V11.6908ZM1.93188 11.6922H2.49106H2.26958C2.08091 11.6812 1.93188 11.5254 1.93188 11.334V11.6922ZM12.1584 7.51406H11.5993H11.8208C12.0094 7.525 12.1584 7.68086 12.1584 7.87227V7.51406ZM11.0688 4.74277H10.5096H10.7311C10.9198 4.75371 11.0688 4.90957 11.0688 5.10098V4.74277ZM1.93599 3.33594H2.49517H2.27368C2.08501 3.34687 1.93599 3.50273 1.93599 3.69414V3.33594Z" fill="#1768E4"/>
<path id="Rectangle 9" d="M1 11C1 10.4477 1.44772 10 2 10H12C12.5523 10 13 10.4477 13 11V12H2C1.44772 12 1 11.5523 1 11V11Z" fill="#8BB3F1"/>
<path id="Vector_2" d="M12.3882 6.39978H3.17607C2.86709 6.39978 2.61553 6.64998 2.61553 6.96033C2.61553 7.26931 2.86572 7.52087 3.17607 7.52087H12.1585V11.6922H1.93193V3.33728H5.85986L6.58037 4.45017C6.62845 4.53915 6.69971 4.61346 6.78661 4.66521C6.8735 4.71696 6.97279 4.74423 7.07393 4.74412H11.0647V5.61091C11.0647 5.9199 11.3149 6.17146 11.6253 6.17146C11.9356 6.17146 12.1858 5.92126 12.1858 5.61091V4.47341C12.1421 3.999 11.7442 3.62849 11.2589 3.62849H10.5138V3.62576H7.38154L6.64463 2.48689L6.63643 2.47458C6.53662 2.32009 6.36299 2.21619 6.16475 2.21619H2.49248V2.21755H1.74736C1.2333 2.21755 0.816309 2.63455 0.816309 3.14861V3.15544H0.814941V11.9547C0.847754 12.4031 1.19775 12.7627 1.64209 12.8105H12.4019C12.8544 12.79 13.2222 12.4469 13.281 12.0052V7.24197C13.2358 6.78123 12.8558 6.41755 12.3882 6.39978Z" fill="#1768E4"/>
</g>
</svg>
