<svg width="20" height="20" viewBox="0 0 20 20" fill="none" xmlns="http://www.w3.org/2000/svg">
<g id="&#233;&#170;&#140;&#232;&#175;&#129;&#231;&#160;&#129;icon_1">
<path id="Union" fill-rule="evenodd" clip-rule="evenodd" d="M10.1467 18.9667C10.216 18.9884 10.2882 18.9996 10.3608 18.9998C10.4334 18.9996 10.5054 18.9881 10.5744 18.9658C12.462 18.3625 14.0666 17.2025 15.3445 15.5219C16.3492 14.2035 17.1523 12.5654 17.7313 10.653C18.7075 7.43081 18.7187 4.56499 18.7187 4.44567C18.7202 4.26997 18.6556 4.10013 18.5376 3.9699C18.4197 3.83966 18.2571 3.75855 18.0821 3.74268C18.0405 3.73866 13.739 3.28616 10.7751 1.13406C10.6546 1.04676 10.5096 0.999756 10.3608 0.999756C10.212 0.999756 10.067 1.04676 9.94653 1.13406C6.99223 3.27923 2.6811 3.73888 2.63798 3.7429C2.463 3.75859 2.30031 3.83945 2.18214 3.96945C2.06398 4.09945 1.99897 4.2691 2.00001 4.44477C2.00001 4.56544 2.01118 7.43684 2.98724 10.6533C3.56844 12.5689 4.37154 14.2062 5.37419 15.5221C6.65391 17.2025 8.25922 18.3611 10.1467 18.9667ZM4.34294 10.2705C3.67771 8.0862 3.48577 5.98393 3.43191 5.05905C4.77421 4.85236 7.83957 4.22467 10.3581 2.56105C12.8756 4.22199 15.9467 4.85325 17.2899 5.06151C17.2292 6.13097 17.0307 8.11525 16.3858 10.2457C15.2172 14.1016 13.1895 16.5592 10.3608 17.5504C7.53835 16.5596 5.51452 14.1106 4.34294 10.2705ZM9.18166 12.5193C9.31277 12.6276 9.47752 12.6868 9.64756 12.6867C9.66955 12.6873 9.69156 12.6867 9.71348 12.6849C9.80905 12.675 9.90157 12.6456 9.98538 12.5986C10.0692 12.5516 10.1425 12.488 10.2008 12.4116L13.6628 7.87102C13.7192 7.7977 13.7604 7.71386 13.7839 7.62441C13.8074 7.53496 13.8128 7.44172 13.7998 7.35015C13.7771 7.18005 13.6934 7.024 13.5643 6.911C13.4351 6.79801 13.2693 6.73577 13.0977 6.73587C12.9895 6.73544 12.8827 6.76021 12.7857 6.80823C12.6888 6.85624 12.6043 6.92618 12.5391 7.01251L9.52891 10.9612L8.08114 9.72324C7.9534 9.61501 7.79139 9.55562 7.62395 9.55565C7.47981 9.55556 7.3391 9.59968 7.22082 9.68207C7.10254 9.76445 7.01238 9.88114 6.96249 10.0164C6.91261 10.1516 6.9054 10.2989 6.94185 10.4384C6.9783 10.5778 7.05664 10.7027 7.16632 10.7963L9.18166 12.5193Z" fill="currentColor"/>
</g>
</svg>
