<svg width="20" height="20" viewBox="0 0 20 20" fill="none" xmlns="http://www.w3.org/2000/svg">
<g id="&#229;&#175;&#134;&#231;&#160;&#129;icon_1">
<path id="Vector" d="M16.44 18.8H4.18974C3.55979 18.8699 3 18.0299 3 17.6103V9.6999C3 8.8601 3.90995 8.3001 4.4 8.3001H5.1001V6.2C5.1001 3.82051 7.6201 2 10 2C12.3799 2 14.8999 3.8201 14.8999 6.2V8.3001H15.6C16.16 8.3001 17 8.78995 17 9.6999V17.6101C16.9301 18.0299 17.0699 18.7998 16.44 18.7998V18.8ZM13.4299 6.2C13.4299 4.58995 11.5399 3.4 9.93005 3.4C8.32021 3.4 6.42995 4.58974 6.42995 6.2V8.3001H13.4299V6.2ZM15.5301 9.6999H4.33005V17.4H15.5301V9.6999ZM10.6308 13.6901V15.3001C10.6308 15.72 10.3508 16 9.93087 16C9.51097 16 9.22995 15.6509 9.22995 15.3001V13.6901C8.81005 13.48 8.53005 12.9899 8.53005 12.5003C8.53005 12.129 8.67755 11.7729 8.9401 11.5104C9.20265 11.2478 9.55875 11.1003 9.93005 11.1003C10.3014 11.1003 10.6575 11.2478 10.92 11.5104C11.1826 11.7729 11.3301 12.129 11.3301 12.5003C11.3301 12.9902 11.0501 13.4802 10.6299 13.6901H10.6308Z" fill="currentColor"/>
</g>
</svg>
