<svg width="20" height="20" viewBox="0 0 20 20" fill="none" xmlns="http://www.w3.org/2000/svg">
<g id="&#231;&#148;&#168;&#230;&#136;&#183;&#229;&#144;&#141;icon_2">
<path id="Vector" d="M12.8365 11.1637C14.1456 10.2901 15.0183 8.76367 15.0183 7.0182C15.0183 4.2547 12.7636 2 10.0001 2C7.2366 2 4.9819 4.2547 4.9819 7.0182C4.9819 8.76367 5.85548 10.2909 7.16373 11.1637C4.10917 12.3275 2 15.2365 2 18.6548C2 19.0911 2.29084 19.382 2.7272 19.382C3.16357 19.382 3.45462 19.0911 3.45462 18.6548C3.45462 15.091 6.43759 12.1093 10.0001 12.1093C13.5626 12.1093 16.5456 15.0183 16.5456 18.6548C16.5456 19.0911 16.8364 19.382 17.2728 19.382C17.7092 19.382 18 19.0183 18 18.6548C18 15.2365 15.8182 12.3266 12.8365 11.1637ZM6.43652 7.09107C6.43652 5.12743 8.03646 3.52728 10.0001 3.52728C11.9638 3.52728 13.5637 5.12743 13.5637 7.09107C13.5637 9.05472 11.9638 10.6547 10.0001 10.6547C8.03646 10.6547 6.43652 9.05472 6.43652 7.09107Z" fill="currentColor"/>
</g>
</svg>
