<svg width="10" height="10" viewBox="0 0 10 10" fill="none" xmlns="http://www.w3.org/2000/svg">
<g id="&#230;&#136;&#191;&#233;&#151;&#180;" clip-path="url(#clip0_97_280)">
<path id="Vector" d="M6.15282 6.9091L8.23091 4.64488L3.23376 1.80747L2.43932 3.20184L5.41842 5.01285L4.99871 5.72165L2.03062 3.91755L1.79714 4.32765L6.15282 6.9091ZM9.28598 4.4773C9.29552 4.53905 9.2911 4.60219 9.27306 4.66196C9.25501 4.72174 9.22381 4.77659 9.1818 4.82239L6.52815 7.71501C6.46492 7.78389 6.38037 7.82888 6.28847 7.84255C6.19657 7.85622 6.10282 7.83775 6.02268 7.7902L1.03499 4.83316C0.942067 4.77796 0.874469 4.68781 0.846933 4.58237C0.819396 4.47692 0.834155 4.36473 0.887991 4.27026L2.72841 1.04042C2.78196 0.946021 2.8702 0.876883 2.97389 0.848077C3.07759 0.819272 3.18833 0.833135 3.28196 0.886644L9.08216 4.18005C9.13602 4.21072 9.18231 4.25337 9.21753 4.30477C9.25275 4.35618 9.27599 4.415 9.2855 4.47682L9.28598 4.4773ZM9.39817 5.29484L10 5.85363L7.7545 8.33337L7.15275 7.77459L9.39817 5.29484Z" fill="#1768E4"/>
<path id="Vector_2" d="M2.26736 7.31482H1.56238V5.83337H0.833374V9.16671H1.5626V8.0556H2.47405C2.53699 8.05554 2.59885 8.03894 2.6536 8.00739C2.70836 7.97584 2.75413 7.93044 2.78648 7.87558L3.33337 6.94969L2.70808 6.56851L2.26736 7.31482Z" fill="#8BB3F1"/>
</g>
<defs>
<clipPath id="clip0_97_280">
<rect width="10" height="10" fill="white"/>
</clipPath>
</defs>
</svg>
