<svg width="11" height="12" viewBox="0 0 11 12" fill="none" xmlns="http://www.w3.org/2000/svg">
<g id="Group 437" stroke="#1768E4">
<path id="Vector" d="M2.74959 7.62928L2.74956 7.62926C2.3814 7.25449 2.09588 6.81569 1.90086 6.32648L1.90078 6.32629C1.71348 5.85362 1.61875 5.35449 1.61875 4.84248C1.61875 4.33048 1.71348 3.83135 1.90078 3.35867L1.90079 3.35866C2.09473 2.8694 2.38027 2.42944 2.74961 2.05458C3.11886 1.67873 3.55124 1.3875 4.03432 1.18896L2.74959 7.62928ZM2.74959 7.62928L4.99037 9.90874C4.99038 9.90875 4.99039 9.90876 4.99041 9.90878C5.12645 10.0473 5.30798 10.1224 5.5 10.1224C5.69243 10.1224 5.87367 10.0459 6.00931 9.90906L6.00959 9.90878M2.74959 7.62928L6.00959 9.90878M6.00959 9.90878L8.25033 7.62936C8.6197 7.25449 8.90526 6.81451 9.09921 6.32523L9.09922 6.32522M6.00959 9.90878L9.09922 6.32522M9.09922 6.32522C9.28653 5.85254 9.38125 5.35341 9.38125 4.84141C9.38125 4.3294 9.28653 3.83027 9.09922 3.35759C8.90519 2.86705 8.6185 2.42823 8.25044 2.05355L8.1791 2.12363L8.25044 2.05355C7.88117 1.67767 7.44876 1.38642 6.96565 1.18788L6.96549 1.18781M9.09922 6.32522L6.96549 1.18781M6.96549 1.18781C6.49907 0.997055 6.00604 0.9 5.5 0.9M6.96549 1.18781L5.5 0.9M7.648 7.03685L7.64805 7.0368C8.22113 6.45436 8.53672 5.67406 8.53672 4.84141C8.53672 4.0088 8.22116 3.22953 7.64799 2.64595L7.71934 2.57588L7.64805 2.64601C7.07596 2.06456 6.31421 1.74453 5.5 1.74453C4.68579 1.74453 3.92404 2.06456 3.35195 2.64601C2.77884 3.22956 2.46328 4.00987 2.46328 4.84248C2.46328 5.67507 2.77883 6.45434 3.35198 7.03791L7.648 7.03685ZM7.648 7.03685L5.54364 9.17881M7.648 7.03685L5.54364 9.17881M5.54364 9.17881C5.54363 9.17882 5.54362 9.17883 5.54361 9.17884C5.51941 9.20341 5.48056 9.20341 5.45637 9.17883C5.45637 9.17882 5.45637 9.17882 5.45636 9.17881L3.35201 7.03794L8.63672 4.84141C8.63672 5.69971 8.31123 6.50537 7.71934 7.10693L5.61494 9.24893L5.54364 9.17881ZM5.5 0.9C4.99397 0.9 4.50087 0.997053 4.03435 1.18895L5.5 0.9Z" fill="#1768E4" stroke="#1768E4" stroke-width="0.2"/>
<path id="Vector_2" d="M9.76863 9.55818L9.76891 9.55839C9.98341 9.71562 10.2125 9.96139 10.2125 10.2812C10.2125 10.6011 9.98341 10.8469 9.76891 11.0041L9.76863 11.0043C9.52627 11.1833 9.18219 11.3445 8.74138 11.4812L8.74134 11.4813C7.87484 11.7503 6.72416 11.9 5.5 11.9C4.27586 11.9 3.12518 11.7503 2.25869 11.4813C1.81882 11.3445 1.47369 11.1832 1.23137 11.0043L1.23109 11.0041C1.01659 10.8469 0.7875 10.6011 0.7875 10.2812C0.7875 9.9614 1.0166 9.71564 1.23084 9.55965L1.23137 9.55925C1.47373 9.3803 1.81781 9.21902 2.25862 9.08233L2.25904 9.0822C2.50714 9.00407 2.78058 8.93724 3.07227 8.87975L3.07254 8.8797C3.20923 8.85236 3.3375 8.95738 3.3375 9.09746C3.3375 9.20342 3.26167 9.29521 3.1586 9.31509L3.15852 9.31511C2.88347 9.36838 2.62639 9.43261 2.39059 9.50576L2.39042 9.50581C1.95362 9.64214 1.67036 9.78682 1.49399 9.91726C1.40579 9.98249 1.34227 10.0457 1.29992 10.1045C1.25891 10.1614 1.23203 10.2223 1.23203 10.2812C1.23203 10.3402 1.25891 10.4011 1.29992 10.458C1.34227 10.5168 1.40579 10.58 1.49399 10.6452C1.67036 10.7757 1.95362 10.9204 2.39042 11.0567L2.39052 11.0567C3.22148 11.3152 4.32567 11.4555 5.5 11.4555C6.67433 11.4555 7.77852 11.3152 8.60948 11.0567L8.60958 11.0567C9.04638 10.9204 9.32964 10.7757 9.50601 10.6452C9.59421 10.58 9.65773 10.5168 9.70008 10.458C9.74109 10.4011 9.76797 10.3402 9.76797 10.2812C9.76797 10.2223 9.74109 10.1614 9.70009 10.1045C9.65775 10.0457 9.59424 9.98245 9.50605 9.91715C9.32971 9.78659 9.04647 9.64164 8.60969 9.50477L8.60941 9.50468C8.3736 9.43154 8.11653 9.3673 7.84148 9.31403L7.84127 9.31399C7.73754 9.29413 7.6625 9.20265 7.6625 9.09639C7.6625 8.95687 7.79036 8.85195 7.92797 8.87873C8.21928 8.93614 8.49285 9.00405 8.74133 9.08124C9.18118 9.21797 9.52631 9.37925 9.76863 9.55818ZM7.11875 4.93164C7.11875 5.82387 6.39223 6.55039 5.5 6.55039C4.60777 6.55039 3.88125 5.82387 3.88125 4.93164C3.88125 4.03941 4.60777 3.31289 5.5 3.31289C6.39223 3.31289 7.11875 4.03941 7.11875 4.93164ZM6.67422 4.93164C6.67422 4.28452 6.14712 3.75742 5.5 3.75742C4.85288 3.75742 4.32578 4.28452 4.32578 4.93164C4.32578 5.57876 4.85288 6.10586 5.5 6.10586C6.14712 6.10586 6.67422 5.57876 6.67422 4.93164Z" fill="#8BB3F1" stroke="#8BB3F1" stroke-width="0.2"/>
</g>
</svg>
