<svg width="14" height="14" viewBox="0 0 14 14" fill="none" xmlns="http://www.w3.org/2000/svg">
<g id="Frame">
<path id="Vector" d="M6.41781 12.8333C4.69454 12.8333 3.76451 9.90755 3.76451 7.15579H4.82558C4.82558 9.99116 5.76851 11.8005 6.41734 11.8005C6.77813 11.8005 7.33105 11.1767 7.692 9.8064L8.72027 10.0634C8.25689 11.8233 7.41748 12.8333 6.41781 12.8333ZM2.40032 7.36595C1.26557 6.18406 0.897634 5.10134 1.36304 4.31694C1.76238 3.64442 2.69629 3.37348 3.99473 3.55507C5.12792 3.71458 6.45978 4.19916 7.74423 4.92021L7.21369 5.81453C6.04334 5.15698 4.84626 4.71791 3.84224 4.577C3.05164 4.46602 2.43888 4.56672 2.28125 4.83297C2.11788 5.1086 2.33068 5.78051 3.17584 6.66093L2.3997 7.36535L2.40032 7.36595ZM7.74391 9.39046L7.21338 8.49614C9.73797 7.07898 10.8777 5.38 10.553 4.83297C10.3848 4.54918 9.61377 4.38906 8.32233 4.70914L8.06071 3.70838C9.75165 3.29048 10.9949 3.51183 11.4724 4.3174C12.3336 5.76887 10.1942 8.01413 7.74391 9.39046Z" fill="#1768E4"/>
<path id="Vector_2" d="M6.41764 1.16663C8.14103 1.16663 9.07154 4.09196 9.07154 6.84386H8.00995C8.00995 4.00834 7.06669 2.19889 6.41764 2.19889C6.12313 2.19889 5.69255 2.62574 5.3447 3.55776C5.00577 3.45076 4.66038 3.3642 4.31048 3.29859C4.80046 1.92264 5.5425 1.16663 6.41764 1.16663ZM9.8778 7.57765C10.1415 7.34583 10.3908 7.09888 10.6242 6.83811C11.5987 7.93011 11.9097 8.94907 11.4735 9.68346C11.1549 10.2192 10.4975 10.5 9.58655 10.5C9.33711 10.4987 9.08809 10.4801 8.8414 10.4442C7.70735 10.2851 6.37581 9.80034 5.09077 9.07895L5.62149 8.18458C6.79193 8.84216 7.98927 9.28126 8.99301 9.42218C9.78388 9.53256 10.3969 9.43246 10.5545 9.16665C10.7041 8.91489 10.5354 8.33427 9.8778 7.57705V7.57765ZM4.034 9.38967C4.10849 9.72754 4.20367 10.0608 4.31903 10.3876C3.93371 10.4599 3.57388 10.4986 3.24796 10.4986C2.34031 10.4986 1.68115 10.2214 1.36114 9.68316C0.499053 8.23161 2.63918 5.98533 5.09015 4.60938L5.62102 5.50329C3.09666 6.92112 1.95545 8.62095 2.28029 9.16619C2.42848 9.41553 3.03244 9.56356 4.034 9.38922V9.38967Z" fill="#8BB3F1"/>
</g>
</svg>
